<svg xmlns="http://www.w3.org/2000/svg" fill="none" viewBox="60 30 140.25 50">
<g filter="url(#filter0_d_1_205)">
<rect x="60" y="30" width="50" height="50" rx="25" fill="#4397A4"/>
<rect x="60" y="30" width="50" height="50" rx="25" fill="url(#paint0_linear_1_205)" fill-opacity="0.2"/>
</g>
<path d="M132.231 46.864C133.719 46.864 134.943 47.008 135.903 47.296C136.863 47.568 137.575 48.024 138.039 48.664C138.503 49.288 138.735 50.136 138.735 51.208C138.735 51.848 138.623 52.432 138.399 52.96C138.175 53.488 137.871 53.92 137.487 54.256C137.119 54.592 136.703 54.808 136.239 54.904V55.024C136.719 55.136 137.175 55.336 137.607 55.624C138.055 55.912 138.415 56.328 138.687 56.872C138.959 57.416 139.095 58.136 139.095 59.032C139.095 60.072 138.847 60.968 138.351 61.72C137.871 62.456 137.183 63.024 136.287 63.424C135.391 63.808 134.319 64 133.071 64H126.927V46.864H132.231ZM132.447 53.656C133.311 53.656 133.911 53.488 134.247 53.152C134.583 52.816 134.751 52.328 134.751 51.688C134.751 51.032 134.551 50.56 134.151 50.272C133.767 49.984 133.159 49.84 132.327 49.84H130.815V53.656H132.447ZM130.815 56.536V61H132.687C133.583 61 134.207 60.792 134.559 60.376C134.911 59.944 135.087 59.376 135.087 58.672C135.087 58.24 135.007 57.864 134.847 57.544C134.703 57.224 134.447 56.976 134.079 56.8C133.727 56.624 133.231 56.536 132.591 56.536H130.815ZM153.563 50.896V64H150.659L150.155 62.32H149.939C149.683 62.768 149.355 63.136 148.955 63.424C148.571 63.696 148.139 63.896 147.659 64.024C147.179 64.168 146.683 64.24 146.171 64.24C145.323 64.24 144.571 64.072 143.915 63.736C143.259 63.4 142.739 62.88 142.355 62.176C141.987 61.472 141.803 60.56 141.803 59.44V50.896H145.643V58.552C145.643 59.48 145.779 60.184 146.051 60.664C146.323 61.144 146.763 61.384 147.371 61.384C147.995 61.384 148.475 61.216 148.811 60.88C149.147 60.544 149.379 60.056 149.507 59.416C149.651 58.776 149.723 57.992 149.723 57.064V50.896H153.563ZM160.667 50.896V64H156.827V50.896H160.667ZM158.771 45.76C159.331 45.76 159.811 45.888 160.211 46.144C160.611 46.384 160.811 46.84 160.811 47.512C160.811 48.168 160.611 48.624 160.211 48.88C159.811 49.136 159.331 49.264 158.771 49.264C158.195 49.264 157.707 49.136 157.307 48.88C156.907 48.624 156.707 48.168 156.707 47.512C156.707 46.84 156.907 46.384 157.307 46.144C157.707 45.888 158.195 45.76 158.771 45.76ZM167.769 64H163.929V45.76H167.769V64ZM174.918 64.24C173.59 64.24 172.502 63.672 171.654 62.536C170.806 61.384 170.382 59.696 170.382 57.472C170.382 55.232 170.814 53.536 171.678 52.384C172.542 51.232 173.662 50.656 175.038 50.656C175.614 50.656 176.11 50.744 176.526 50.92C176.958 51.08 177.326 51.304 177.63 51.592C177.95 51.88 178.222 52.208 178.446 52.576H178.542C178.494 52.32 178.446 51.952 178.398 51.472C178.35 50.976 178.326 50.472 178.326 49.96V45.76H182.166V64H179.262L178.47 62.296H178.326C178.118 62.648 177.862 62.976 177.558 63.28C177.254 63.568 176.886 63.8 176.454 63.976C176.022 64.152 175.51 64.24 174.918 64.24ZM176.382 61.384C177.182 61.384 177.75 61.096 178.086 60.52C178.438 59.928 178.614 59.048 178.614 57.88V57.496C178.614 56.216 178.454 55.24 178.134 54.568C177.814 53.896 177.214 53.56 176.334 53.56C175.71 53.56 175.206 53.904 174.822 54.592C174.454 55.264 174.27 56.24 174.27 57.52C174.27 58.8 174.454 59.768 174.822 60.424C175.206 61.064 175.726 61.384 176.382 61.384ZM189.261 50.896V64H185.421V50.896H189.261ZM187.365 45.76C187.925 45.76 188.405 45.888 188.805 46.144C189.205 46.384 189.405 46.84 189.405 47.512C189.405 48.168 189.205 48.624 188.805 48.88C188.405 49.136 187.925 49.264 187.365 49.264C186.789 49.264 186.301 49.136 185.901 48.88C185.501 48.624 185.301 48.168 185.301 47.512C185.301 46.84 185.501 46.384 185.901 46.144C186.301 45.888 186.789 45.76 187.365 45.76ZM198.163 61.384C198.547 61.384 198.899 61.344 199.219 61.264C199.555 61.184 199.899 61.088 200.251 60.976V63.64C199.851 63.8 199.379 63.936 198.835 64.048C198.307 64.176 197.683 64.24 196.963 64.24C196.195 64.24 195.507 64.112 194.899 63.856C194.307 63.6 193.843 63.16 193.507 62.536C193.171 61.896 193.003 61.016 193.003 59.896V53.584H191.443V52.072L193.315 50.872L194.371 48.112H196.843V50.896H200.107V53.584H196.843V59.896C196.843 60.392 196.963 60.768 197.203 61.024C197.443 61.264 197.763 61.384 198.163 61.384Z" fill="#486A6F"/>
<defs>
<filter id="filter0_d_1_205" x="0" y="0" width="170" height="170" filterUnits="userSpaceOnUse" color-interpolation-filters="sRGB">
<feFlood flood-opacity="0" result="BackgroundImageFix"/>
<feColorMatrix in="SourceAlpha" type="matrix" values="0 0 0 0 0 0 0 0 0 0 0 0 0 0 0 0 0 0 127 0" result="hardAlpha"/>
<feOffset dy="30"/>
<feGaussianBlur stdDeviation="30"/>
<feComposite in2="hardAlpha" operator="out"/>
<feColorMatrix type="matrix" values="0 0 0 0 0.231373 0 0 0 0 0.509804 0 0 0 0 0.964706 0 0 0 0.25 0"/>
<feBlend mode="normal" in2="BackgroundImageFix" result="effect1_dropShadow_1_205"/>
<feBlend mode="normal" in="SourceGraphic" in2="effect1_dropShadow_1_205" result="shape"/>
</filter>
<linearGradient id="paint0_linear_1_205" x1="60" y1="32.1809" x2="118.315" y2="46.9983" gradientUnits="userSpaceOnUse">
<stop stop-color="#4397A4"/>
<stop offset="1" stop-color="#5BCCDE"/>
</linearGradient>
</defs>
</svg>