<svg width="70" height="70" viewBox="0 0 70 70" fill="none" xmlns="http://www.w3.org/2000/svg">
<rect width="70" height="70" rx="3" fill="#678C92"/>
<rect width="70" height="70" rx="3" fill="url(#paint0_linear_3_2929)" fill-opacity="0.2"/>
<path d="M35.5332 12.0003C35.7904 12.0067 36.0301 12.1043 36.2603 12.2858L59.5354 33.3798C60.0708 33.8737 60.1468 34.7845 59.7461 35.3794C59.3509 35.9656 58.5105 36.0597 58.0042 35.5992L35.4947 15.2083L12.9852 35.5992C12.479 36.0597 11.6616 35.9621 11.2626 35.3794C10.8665 34.8012 10.9092 33.8403 11.454 33.3798L20.1822 25.4695V13.4065C20.1822 12.6296 20.7308 12.0004 21.4076 12.0004H26.3077C26.984 12.0004 27.5326 12.6296 27.5326 13.4065V18.812L34.7296 12.2858C35.0022 12.0798 35.276 11.994 35.5332 12.0003ZM25.0822 14.8126H22.6325V23.2501L25.0822 21.0307V14.8126ZM50.8073 30.9181L53.2571 33.1375V55.5939C53.2571 56.3703 52.709 57 52.0327 57H41.6202C40.9435 57 40.3953 56.3702 40.3949 55.5939V48.5625C40.3949 45.422 38.2309 42.9373 35.4948 42.9373C32.7591 42.9373 30.5946 45.4215 30.5946 48.5625V55.5939C30.5946 56.3703 30.0465 57 29.3702 57H18.9573C18.281 57 17.7324 56.3702 17.7324 55.5939V33.1375L20.1822 30.9181V54.1868H28.1448V48.5616C28.1448 43.9115 31.444 40.1242 35.4948 40.1242C39.5455 40.1242 42.8447 43.9115 42.8447 48.5616V54.1868H50.8073L50.8073 30.9181Z" fill="#F4F7FF"/>
<defs>
<linearGradient id="paint0_linear_3_2929" x1="0" y1="0" x2="70" y2="70" gradientUnits="userSpaceOnUse">
<stop stop-color="#678C92"/>
<stop offset="1" stop-color="#9ED5DE"/>
</linearGradient>
</defs>
</svg>
