<svg width="70" height="70" viewBox="0 0 70 70" fill="none" xmlns="http://www.w3.org/2000/svg">
<rect width="70" height="70" rx="3" fill="#678C92"/>
<rect width="70" height="70" rx="3" fill="url(#paint0_linear_3_2931)" fill-opacity="0.2"/>
<path d="M63.9999 25.8078C63.9985 24.9327 63.7442 24.0449 63.1812 23.3133L58.665 17.4682C57.9087 16.4967 56.7575 16.0023 55.6072 16C54.9227 16 54.2256 16.1778 53.6097 16.5662L49.2061 19.3372C48.743 19.6361 47.9487 19.8408 47.182 19.8358C46.5861 19.8385 46.0105 19.7179 45.6301 19.5278L41.3177 17.4152C40.6219 17.0766 39.8466 16.9377 39.0668 16.9363C37.9468 16.9413 36.8128 17.2201 35.9015 17.8589L35.3982 18.2158C34.9961 18.0129 34.3812 17.7036 33.6851 17.3531C32.8501 16.9391 31.8684 16.7718 30.8767 16.7686C29.9808 16.7713 29.0854 16.9107 28.2988 17.247L25.3616 18.5147C24.8836 18.7244 24.1232 18.861 23.3678 18.8578C22.6124 18.861 21.8534 18.7244 21.3753 18.5147L18.4355 17.2466C17.8992 17.0153 17.3259 16.9162 16.7579 16.9157C16.1037 16.9162 15.4536 17.0469 14.8491 17.2946C14.2455 17.5436 13.6853 17.911 13.2389 18.4155L7.88644 24.4784C7.29323 25.1479 6.99865 25.9919 7 26.8226C6.99865 27.8133 7.41792 28.8068 8.22624 29.5032L13.2195 33.8118L10.8503 36.3109C10.1975 37 9.8722 37.8938 9.8722 38.7776C9.87085 39.7176 10.24 40.6671 10.9714 41.3658L11.4521 41.8278C11.9048 42.2619 12.4488 42.5384 13.0181 42.686C12.7325 43.2175 12.5762 43.7996 12.5776 44.3832C12.5762 45.3241 12.9453 46.2727 13.6754 46.9723L13.6741 46.9719L14.1561 47.4357C14.842 48.0933 15.7316 48.4209 16.6076 48.4204C17.0783 48.4209 17.55 48.3254 17.9928 48.138C18.1483 48.776 18.4695 49.3829 18.9746 49.8676L19.4567 50.3314C20.1425 50.989 21.0307 51.3166 21.9081 51.3162C22.5939 51.3167 23.2834 51.1124 23.8766 50.7153C24.0501 51.2801 24.3474 51.8152 24.8001 52.2502L25.2822 52.714C25.9667 53.3716 26.8562 53.6992 27.7323 53.6988C28.6657 53.6992 29.6082 53.3286 30.3044 52.5938L32.3976 50.3831L35.2417 53.0454C35.9226 53.6842 36.7963 54.0018 37.6588 54C38.6062 54.0018 39.5622 53.618 40.2597 52.8626L40.7138 52.3705C41.1055 51.9446 41.3617 51.441 41.5099 50.9151L42.6118 51.9437C43.294 52.5798 44.1664 52.896 45.0276 52.8956C45.9764 52.896 46.9351 52.5122 47.6331 51.7564L48.0844 51.2651C48.6058 50.7017 48.899 50.0039 48.9898 49.2915C49.2808 49.3669 49.5754 49.4181 49.8726 49.4181C50.8214 49.4181 51.7775 49.0347 52.4764 48.2794L52.9291 47.7881C53.5621 47.1022 53.8765 46.2225 53.8752 45.3552C53.8752 45.0861 53.8368 44.8178 53.778 44.5533C54.5651 44.4477 55.3281 44.0927 55.9083 43.4625L56.3623 42.9704C56.9953 42.2845 57.3084 41.4048 57.3084 40.5366C57.3097 39.5815 56.9289 38.6178 56.1775 37.9154L55.3286 37.1222L62.992 28.5523C63.6815 27.7791 63.9986 26.7856 64 25.8078L63.9999 25.8078ZM12.3089 39.9544C11.9759 39.6359 11.8115 39.2123 11.8101 38.7773C11.8115 38.3693 11.9561 37.9708 12.2533 37.6573L17.1047 32.537C17.421 32.2034 17.8425 32.0367 18.2753 32.0357C18.6801 32.0362 19.0759 32.1838 19.3885 32.4817L19.8679 32.9442C19.8679 32.9442 20.364 33.6863 20.3653 34.1222C20.364 34.4485 20.2668 34.766 20.0784 35.0411C20.0622 35.0576 14.8425 40.5599 14.8425 40.5599C14.5651 40.7582 14.2375 40.8606 13.9041 40.8619C13.4979 40.8606 13.1008 40.7139 12.7909 40.4164L12.3089 39.9544ZM16.6087 46.4689C16.2025 46.4685 15.8068 46.3209 15.4955 46.0234L15.0134 45.56L15.012 45.5596C14.6818 45.2424 14.516 44.8175 14.516 44.3825C14.516 43.9744 14.6619 43.576 14.9578 43.2625C14.9578 43.2625 21.4244 36.4542 21.4786 36.3884C21.7877 36.0877 22.1857 35.9323 22.5973 35.9319C23.0035 35.9323 23.3992 36.0795 23.7105 36.3774L24.1926 36.8412C24.5242 37.1584 24.6887 37.5829 24.69 38.0183C24.6887 38.4264 24.5432 38.8253 24.2468 39.1392L17.7775 45.9695C17.4626 46.3012 17.0415 46.4676 16.6087 46.4689ZM21.9097 49.3647C21.5035 49.3642 21.1077 49.2166 20.7964 48.9187L20.3134 48.4553C19.9818 48.1378 19.816 47.7132 19.816 47.2783C19.816 46.9141 19.9384 46.5608 20.1729 46.267L24.6765 41.5128C24.9801 41.2358 25.361 41.0896 25.7554 41.0896C26.1616 41.0901 26.5574 41.2372 26.8686 41.5351L27.3516 41.999C27.6819 42.3161 27.8477 42.7406 27.849 43.1757C27.8477 43.5847 27.7009 43.9836 27.4058 44.2966L23.0781 48.8644C22.7636 49.1971 22.3425 49.3633 21.9097 49.3647ZM28.9021 51.2465C28.5872 51.5791 28.1657 51.7455 27.7329 51.7468C27.3268 51.7464 26.931 51.5988 26.6197 51.3008L26.1376 50.8375C25.8073 50.5204 25.6415 50.0954 25.6402 49.6604C25.6415 49.2514 25.787 48.8525 26.0834 48.5404L28.8145 45.6561C29.1308 45.3234 29.5523 45.1562 29.9851 45.1557C30.3899 45.1562 30.787 45.3033 31.0983 45.6017L31.5813 46.0651C31.9116 46.3822 32.076 46.8067 32.0774 47.2418C32.076 47.6508 31.9305 48.0497 31.6342 48.3627L28.9021 51.2465ZM54.9442 41.642L54.4915 42.1332C54.1753 42.475 53.7465 42.6482 53.3074 42.6487C52.9089 42.6482 52.519 42.5066 52.2095 42.2169L44.58 35.0805L43.2608 36.5094L51.4274 44.1617C51.7676 44.4802 51.9384 44.9125 51.9411 45.3538C51.9384 45.756 51.7979 46.1481 51.511 46.4597L51.0597 46.9509C50.7434 47.2927 50.3146 47.465 49.8755 47.4664C49.477 47.465 49.0858 47.3229 48.779 47.0355L41.1468 39.8991L39.8289 41.328L46.6018 47.6628C46.9285 47.979 47.0952 48.4004 47.0952 48.8326C47.0952 49.2334 46.9547 49.6259 46.6678 49.9371L46.2151 50.4284C45.9002 50.7702 45.4701 50.9433 45.03 50.9447C44.6302 50.9434 44.2403 50.8012 43.9321 50.5138L37.1728 44.2018H37.1715L37.1701 44.2004L35.8545 45.6316L35.8558 45.633L35.8811 45.6572L39.2665 48.8176C39.5665 49.1292 39.7219 49.5291 39.7233 49.9422C39.7219 50.3411 39.5828 50.7313 39.2959 51.0425L38.8432 51.5347C38.5269 51.8765 38.0995 52.0483 37.6617 52.0497C37.2632 52.0483 36.8733 51.9066 36.5652 51.6178L33.6177 48.8573C33.8743 48.3482 34.0175 47.7962 34.0175 47.2419C34.0189 46.3019 33.6498 45.3537 32.9197 44.6536L32.4367 44.1898C31.7522 43.5327 30.8639 43.2046 29.9879 43.206C29.9197 43.206 29.8515 43.2215 29.7846 43.2256C29.7846 43.2092 29.7887 43.1923 29.7887 43.1758C29.79 42.2359 28.6908 40.5862 28.6908 40.5862L28.2087 40.1238C27.6964 39.6325 27.0716 39.3259 26.421 39.2025C26.5552 38.8187 26.6306 38.4188 26.6306 38.0185C26.6306 37.0786 26.2629 36.1299 25.5327 35.4303L25.0507 34.9665C24.3648 34.3089 23.4767 33.9804 22.6005 33.9813C22.498 33.9813 22.3972 34.0023 22.2956 34.0115C22.2676 33.1085 21.9084 32.2064 21.2085 31.5347V31.5343L20.7278 31.0723C20.042 30.4138 19.1538 30.0857 18.2777 30.0861C17.3429 30.0857 16.4018 30.4563 15.7056 31.1911L14.5603 32.3997L9.48757 28.0239C9.12297 27.7081 8.94089 27.2717 8.93954 26.8239C8.94089 26.4487 9.06695 26.0809 9.33667 25.7756L14.6891 19.7127C14.9014 19.4714 15.2159 19.2534 15.5836 19.1022C15.9514 18.9509 16.3693 18.8678 16.7597 18.8682C17.0999 18.8682 17.4189 18.9304 17.6741 19.0419L20.6126 20.31C21.4412 20.6632 22.4027 20.808 23.369 20.8112C24.3368 20.808 25.2973 20.6632 26.1254 20.31L29.0626 19.0423C29.5153 18.8426 30.1989 18.7188 30.8779 18.7215C31.6293 18.717 32.382 18.8742 32.8183 19.0995C33.0957 19.2388 33.3587 19.3713 33.6027 19.4952L30.6073 21.6251C29.645 22.3096 29.1258 23.3985 29.1272 24.4971C29.1258 25.2241 29.354 25.9644 29.8175 26.5927L29.8162 26.5913L30.212 27.1292C30.9633 28.1395 32.1348 28.6586 33.3059 28.6614C33.9673 28.6614 34.6409 28.4924 35.2413 28.1282L37.0327 27.0401C37.3982 26.8139 37.9498 26.6714 38.5204 26.6741C39.1909 26.67 39.8664 26.8706 40.2725 27.1726L45.2287 30.7667C46.3316 31.5659 48.1283 33.0483 49.1242 33.9814L54.8607 39.346C55.2009 39.665 55.3717 40.0954 55.373 40.5378C55.3735 40.9377 55.2316 41.3302 54.9443 41.6419L54.9442 41.642ZM61.5545 27.2462L53.9123 35.7931L50.4425 32.5492C49.3555 31.5343 47.5636 30.0547 46.3614 29.1814L41.4065 25.5874C40.5666 24.9856 39.5379 24.7251 38.5209 24.7214C37.6557 24.7242 36.7837 24.9147 36.0311 25.368L34.241 26.4561C33.9663 26.6233 33.6424 26.7083 33.3063 26.7088C32.7054 26.7106 32.1036 26.4273 31.7679 25.9653L31.3734 25.4279L31.3721 25.4265C31.1624 25.1405 31.0644 24.8192 31.063 24.4943C31.0658 24.0031 31.2898 23.526 31.7236 23.2162L37.0205 19.4522C37.4786 19.1168 38.2932 18.8814 39.0671 18.8874C39.6047 18.8846 40.1184 18.9943 40.4699 19.1698L44.7823 21.2823C45.5174 21.6392 46.3473 21.7855 47.1818 21.7873C48.2544 21.7823 49.3386 21.546 50.2319 20.9913L54.6369 18.2194C54.918 18.0416 55.2555 17.9502 55.6074 17.9502C56.202 17.9488 56.7979 18.2217 57.1354 18.6663L61.6516 24.5113C61.9118 24.8462 62.0627 25.3183 62.0627 25.8077C62.0645 26.356 61.8734 26.8943 61.5545 27.2462Z" fill="#F4F7FF"/>
<defs>
<linearGradient id="paint0_linear_3_2931" x1="0" y1="0" x2="70" y2="70" gradientUnits="userSpaceOnUse">
<stop stop-color="#678C92"/>
<stop offset="1" stop-color="#9ED5DE"/>
</linearGradient>
</defs>
</svg>
