<svg width="70" height="70" viewBox="0 0 70 70" fill="none" xmlns="http://www.w3.org/2000/svg">
<rect width="70" height="70" rx="3" fill="#678C92"/>
<rect width="70" height="70" rx="3" fill="url(#paint0_linear_3_2926)" fill-opacity="0.2"/>
<path d="M35.4806 33.3303C36.0031 33.3221 36.5225 33.2488 37.0269 33.1117V32.4015C37.0243 32.1031 37.1959 31.8307 37.4665 31.7045C37.7187 31.5908 37.9613 31.4558 38.191 31.3009C38.4462 31.1375 38.7714 31.1299 39.0342 31.2813L39.6708 31.6367C40.4526 30.8964 41.0146 29.9544 41.2946 28.9148L40.1913 28.2987C40.3044 27.7312 40.3044 27.1467 40.1913 26.5791L41.2943 25.963C41.0157 24.9229 40.4549 23.9806 39.6737 23.2394L39.0342 23.5966C38.7715 23.748 38.4462 23.7404 38.191 23.577C37.9613 23.4221 37.7187 23.2871 37.4665 23.1731C37.1959 23.0471 37.0243 22.7747 37.0269 22.4763V21.7632C35.9631 21.4736 34.8414 21.4747 33.7781 21.7661V22.4763C33.7808 22.7747 33.6089 23.0471 33.3386 23.1731C33.0861 23.2871 32.8438 23.4221 32.6143 23.577C32.3589 23.7404 32.0336 23.7483 31.7709 23.5969L31.1344 23.2415C30.3526 23.9818 29.7905 24.9234 29.5106 25.963L30.6138 26.5791C30.5007 27.1467 30.5007 27.7312 30.6138 28.2988L29.5109 28.9149C29.7894 29.955 30.3503 30.8973 31.1311 31.6384L31.7706 31.2813C32.0334 31.1302 32.3589 31.1375 32.6143 31.3009C32.8438 31.4558 33.0861 31.5908 33.3386 31.7045C33.6089 31.8307 33.7808 32.1031 33.7778 32.4015V33.1146C34.3329 33.2643 34.9057 33.3368 35.4806 33.3303ZM32.7839 27.4389C32.7839 26.7445 33.0598 26.0784 33.5508 25.5871C34.0421 25.0961 34.7081 24.8202 35.4025 24.8202C36.0969 24.8202 36.7631 25.0961 37.2543 25.5871C37.7453 26.0784 38.0212 26.7445 38.0212 27.4389C38.0212 28.1333 37.7453 28.7994 37.2543 29.2907C36.763 29.7817 36.0969 30.0576 35.4025 30.0576C34.7081 30.0576 34.042 29.7817 33.5508 29.2907C33.0598 28.7994 32.7839 28.1333 32.7839 27.4389Z" fill="#F4F7FF"/>
<path d="M35.4027 55.5898C43.3575 55.5898 49.8054 52.9518 49.8054 49.6977C49.8054 47.053 45.5465 44.8155 39.6816 44.0702C43.7683 38.8157 47.8414 33.205 47.8414 26.784C47.8414 20.2759 42.2723 15 35.4027 15C28.5331 15 22.964 20.2759 22.964 26.784C22.964 33.5379 26.8488 38.874 31.0026 44.0867C25.2009 44.8474 21 47.0713 21 49.6975C21 52.9516 27.4482 55.5898 35.4027 55.5898ZM26.892 27.4391C26.892 25.1819 27.7886 23.0171 29.3847 21.4211C30.9807 19.825 33.1455 18.9284 35.4027 18.9284C37.6598 18.9284 39.8246 19.825 41.4207 21.4211C43.0167 23.0171 43.9134 25.1819 43.9134 27.4391C43.9134 29.6962 43.0167 31.861 41.4207 33.4571C39.8246 35.0531 37.6598 35.9497 35.4027 35.9497C33.1455 35.9497 30.9807 35.0531 29.3847 33.4571C27.7886 31.861 26.892 29.6962 26.892 27.4391ZM32.7051 46.2127C33.6283 47.3671 34.5408 48.5242 35.4027 49.6979C36.2146 48.5443 37.1033 47.3802 38.0199 46.2013C40.8943 46.6172 42.9471 47.6942 42.9471 48.9615C42.9471 50.5885 39.5694 51.9075 35.4031 51.9075C31.2368 51.9075 27.859 50.5885 27.859 48.9615C27.8588 47.7062 29.8728 46.637 32.7051 46.2127Z" fill="#F4F7FF"/>
<defs>
<linearGradient id="paint0_linear_3_2926" x1="0" y1="0" x2="70" y2="70" gradientUnits="userSpaceOnUse">
<stop stop-color="#678C92"/>
<stop offset="1" stop-color="#9ED5DE"/>
</linearGradient>
</defs>
</svg>
